<?xml version="1.0" encoding="iso-8859-1"?>
<!-- Uploaded to: SVG Repo, www.svgrepo.com, Generator: SVG Repo Mixer Tools -->
<svg height="800px" width="800px" version="1.1" id="Layer_1" xmlns="http://www.w3.org/2000/svg" xmlns:xlink="http://www.w3.org/1999/xlink" 
	 viewBox="0 0 512 512" xml:space="preserve">
<g transform="translate(1 1)">
	<g>
		<polygon style="fill:#FFE100;" points="92.867,109.933 417.133,109.933 417.133,41.667 92.867,41.667 		"/>
		<path style="fill:#FFE100;" d="M425.667,41.667H84.333c-9.387,0-17.067-7.68-17.067-17.067s7.68-17.067,17.067-17.067h341.333
			c9.387,0,17.067,7.68,17.067,17.067S435.053,41.667,425.667,41.667"/>
		<path style="fill:#FFE100;" d="M425.667,144.067H84.333c-9.387,0-17.067-7.68-17.067-17.067s7.68-17.067,17.067-17.067h341.333
			c9.387,0,17.067,7.68,17.067,17.067S435.053,144.067,425.667,144.067"/>
	</g>
	<g>
		<path style="fill:#FFA800;" d="M425.667,109.933h-25.6c9.387,0,17.067,7.68,17.067,17.067s-7.68,17.067-17.067,17.067h25.6
			c9.387,0,17.067-7.68,17.067-17.067S435.053,109.933,425.667,109.933"/>
		<path style="fill:#FFA800;" d="M425.667,7.533h-25.6c9.387,0,17.067,7.68,17.067,17.067s-7.68,17.067-17.067,17.067h25.6
			c9.387,0,17.067-7.68,17.067-17.067S435.053,7.533,425.667,7.533"/>
	</g>
	<g>
		<path style="fill:#FDCC00;" d="M289.133,391.533h-68.267c-9.387,0-17.067-7.68-17.067-17.067s7.68-17.067,17.067-17.067h68.267
			c9.387,0,17.067,7.68,17.067,17.067S298.52,391.533,289.133,391.533"/>
		<path style="fill:#FDCC00;" d="M323.267,502.467H186.733c-9.387,0-17.067-7.68-17.067-17.067s7.68-17.067,17.067-17.067h136.533
			c9.387,0,17.067,7.68,17.067,17.067S332.653,502.467,323.267,502.467"/>
	</g>
	<path style="fill:#FFE100;" d="M92.867,144.067C92.867,233.667,165.4,306.2,255,306.2s162.133-72.533,162.133-162.133H92.867z"/>
	<g>
		<polygon style="fill:#FFA800;" points="391.533,109.933 417.133,109.933 417.133,41.667 391.533,41.667 		"/>
		<path style="fill:#FFA800;" d="M391.533,144.067c0,85.333-65.707,155.307-149.333,161.28c4.267,0,8.533,0.853,12.8,0.853
			c89.6,0,162.133-72.533,162.133-162.133H391.533z"/>
	</g>
	<g>
		<path style="fill:#FFFFFF;" d="M84.333,109.933h25.6c-9.387,0-17.067,7.68-17.067,17.067s7.68,17.067,17.067,17.067h-25.6
			c-9.387,0-17.067-7.68-17.067-17.067S74.947,109.933,84.333,109.933"/>
		<path style="fill:#FFFFFF;" d="M84.333,7.533h25.6c-9.387,0-17.067,7.68-17.067,17.067s7.68,17.067,17.067,17.067h-25.6
			c-9.387,0-17.067-7.68-17.067-17.067S74.947,7.533,84.333,7.533"/>
		<polygon style="fill:#FFFFFF;" points="92.867,109.933 118.467,109.933 118.467,41.667 92.867,41.667 		"/>
		<path style="fill:#FFFFFF;" d="M118.467,144.067c0,85.333,65.707,155.307,149.333,161.28c-4.267,0.853-8.533,0.853-12.8,0.853
			c-89.6,0-162.133-72.533-162.133-162.133H118.467z"/>
	</g>
	<g>
		<polygon style="fill:#FFE100;" points="229.4,357.4 280.6,357.4 280.6,306.2 229.4,306.2 		"/>
		<path style="fill:#FFE100;" d="M280.6,391.533h-51.2c0,77.653-28.16,75.093-42.667,76.8h136.533
			C308.76,466.627,280.6,469.187,280.6,391.533"/>
	</g>
	<path d="M425.667,50.2H84.333c-14.507,0-25.6-11.093-25.6-25.6S69.827-1,84.333-1h341.333c14.507,0,25.6,11.093,25.6,25.6
		S440.173,50.2,425.667,50.2z M84.333,16.067c-5.12,0-8.533,3.413-8.533,8.533s3.413,8.533,8.533,8.533h341.333
		c5.12,0,8.533-3.413,8.533-8.533s-3.413-8.533-8.533-8.533H84.333z"/>
	<path d="M425.667,152.6H84.333c-14.507,0-25.6-11.093-25.6-25.6s11.093-25.6,25.6-25.6h341.333c14.507,0,25.6,11.093,25.6,25.6
		S440.173,152.6,425.667,152.6z M84.333,118.467c-5.12,0-8.533,3.413-8.533,8.533s3.413,8.533,8.533,8.533h341.333
		c5.12,0,8.533-3.413,8.533-8.533s-3.413-8.533-8.533-8.533H84.333z"/>
	<path d="M425.667,118.467H84.333V33.133h341.333V118.467z M101.4,101.4h307.2V50.2H101.4V101.4z"/>
	<path d="M220.867,84.333H152.6c-5.12,0-8.533-3.413-8.533-8.533s3.413-8.533,8.533-8.533h68.267c5.12,0,8.533,3.413,8.533,8.533
		C229.4,80.92,225.987,84.333,220.867,84.333z"/>
	<path d="M357.4,84.333h-68.267c-5.12,0-8.533-3.413-8.533-8.533s3.413-8.533,8.533-8.533H357.4c5.12,0,8.533,3.413,8.533,8.533
		C365.933,80.92,362.52,84.333,357.4,84.333z"/>
	<path d="M263.533,75.8c0,5.12-3.413,8.533-8.533,8.533s-8.533-3.413-8.533-8.533s3.413-8.533,8.533-8.533
		S263.533,70.68,263.533,75.8"/>
	<path d="M400.067,75.8c0,5.12-3.413,8.533-8.533,8.533S383,80.92,383,75.8s3.413-8.533,8.533-8.533S400.067,70.68,400.067,75.8"/>
	<path d="M109.933,75.8c0-5.12,3.413-8.533,8.533-8.533c5.12,0,8.533,3.413,8.533,8.533c0,5.12-3.413,8.533-8.533,8.533
		C113.347,84.333,109.933,80.92,109.933,75.8"/>
	<path d="M255,314.733c-93.867,0-170.667-76.8-170.667-170.667v-8.533h341.333v8.533C425.667,237.933,348.867,314.733,255,314.733z
		 M101.4,152.6c4.267,81.067,71.68,145.067,153.6,145.067s149.333-64,153.6-145.067H101.4z"/>
	<path d="M289.133,365.933h-68.267v-68.267h68.267V365.933z M237.933,348.867h34.133v-34.133h-34.133V348.867z"/>
	<path d="M289.133,400.067h-68.267c-14.507,0-25.6-11.093-25.6-25.6c0-14.507,11.093-25.6,25.6-25.6h68.267
		c14.507,0,25.6,11.093,25.6,25.6C314.733,388.973,303.64,400.067,289.133,400.067z M220.867,365.933
		c-5.12,0-8.533,3.413-8.533,8.533c0,5.12,3.413,8.533,8.533,8.533h68.267c5.12,0,8.533-3.413,8.533-8.533
		c0-5.12-3.413-8.533-8.533-8.533H220.867z"/>
	<path d="M323.267,511H186.733c-14.507,0-25.6-11.093-25.6-25.6s11.093-25.6,25.6-25.6h136.533c14.507,0,25.6,11.093,25.6,25.6
		S337.773,511,323.267,511z M186.733,476.867c-5.12,0-8.533,3.413-8.533,8.533s3.413,8.533,8.533,8.533h136.533
		c5.12,0,8.533-3.413,8.533-8.533s-3.413-8.533-8.533-8.533H186.733z"/>
	<path d="M323.267,476.867H186.733c-4.267,0-8.533-3.413-8.533-7.68s2.56-8.533,7.68-9.387c0.853,0,2.56,0,3.413,0
		c13.653-1.707,31.573-3.413,31.573-68.267c0-5.12,3.413-8.533,8.533-8.533h51.2c5.12,0,8.533,3.413,8.533,8.533
		c0,64.853,17.92,66.56,31.573,68.267c1.707,0,2.56,0,3.413,0c4.267,0.853,7.68,4.267,7.68,9.387S327.533,476.867,323.267,476.867z
		 M223.427,459.8h63.147c-8.533-11.093-13.653-29.013-14.507-59.733h-34.133C237.08,430.787,231.107,448.707,223.427,459.8z"/>
	<path d="M229.4,263.533c-46.933,0-85.333-38.4-85.333-85.333c0-5.12,3.413-8.533,8.533-8.533c5.12,0,8.533,3.413,8.533,8.533
		c0,37.547,30.72,68.267,68.267,68.267c5.12,0,8.533,3.413,8.533,8.533S234.52,263.533,229.4,263.533z"/>
</g>
</svg>